HIERARCHY
ROOT Hips
{
	OFFSET	0.00	0.00	0.00
	CHANNELS 6 Xposition Yposition Zposition Zrotation Xrotation Yrotation
	JOINT LeftUpLeg
	{
		OFFSET	 0.126116	-0.014019	-0.065224
		CHANNELS 3 Zrotation Xrotation Yrotation
		JOINT LeftLeg
		{
			OFFSET	 0.000000	 0.000000	 0.569914
			CHANNELS 3 Zrotation Xrotation Yrotation
			JOINT LeftFoot
			{
				OFFSET	 0.000000	 0.000000	 0.544423
				CHANNELS 3 Zrotation Xrotation Yrotation
				JOINT LeftToeBase
				{
					OFFSET	 0.000000	 0.000000	 0.207117
					CHANNELS 3 Zrotation Xrotation Yrotation
					End Site
					{
						OFFSET	 0.000000	 0.000000	 0.207117
					}
				}
			}
		}
	}
	JOINT RightUpLeg
	{
		OFFSET	-0.124023	-0.008373	-0.065224
		CHANNELS 3 Zrotation Xrotation Yrotation
		JOINT RightLeg
		{
			OFFSET	 0.000000	 0.000000	 0.570047
			CHANNELS 3 Zrotation Xrotation Yrotation
			JOINT RightFoot
			{
				OFFSET	 0.000000	 0.000000	 0.544354
				CHANNELS 3 Zrotation Xrotation Yrotation
				JOINT RightToeBase
				{
					OFFSET	 0.000000	 0.000000	 0.207540
					CHANNELS 3 Zrotation Xrotation Yrotation
					End Site
					{
						OFFSET	 0.000000	 0.000000	 0.207540
					}
				}
			}
		}
	}
	JOINT Spine
	{
		OFFSET	 0.000184	-0.007763	 0.117403
		CHANNELS 3 Zrotation Xrotation Yrotation
		JOINT Spine1
		{
			OFFSET	 0.000000	 0.000000	 0.137269
			CHANNELS 3 Zrotation Xrotation Yrotation
			JOINT Spine2
			{
				OFFSET	 0.000000	 0.000000	 0.156879
				CHANNELS 3 Zrotation Xrotation Yrotation
				JOINT LeftShoulder
				{
					OFFSET	 0.080501	-0.002496	 0.160144
					CHANNELS 3 Zrotation Xrotation Yrotation
					JOINT LeftArm
					{
						OFFSET	 0.000000	 0.000000	 0.164363
						CHANNELS 3 Zrotation Xrotation Yrotation
						JOINT LeftForeArm
						{
							OFFSET	 0.000000	 0.000000	 0.364576
							CHANNELS 3 Zrotation Xrotation Yrotation
							JOINT LeftHand
							{
								OFFSET	 0.000000	 0.000000	 0.360812
								CHANNELS 3 Zrotation Xrotation Yrotation
								JOINT LeftHandIndex1
								{
									OFFSET	 0.000000	 0.000000	 0.086006
									CHANNELS 3 Zrotation Xrotation Yrotation
									JOINT LeftHandIndex2
									{
										OFFSET	 0.000000	 0.000000	 0.047236
										CHANNELS 3 Zrotation Xrotation Yrotation
										JOINT LeftHandIndex3
										{
											OFFSET	-0.004284	-0.000551	 0.038166
											CHANNELS 3 Zrotation Xrotation Yrotation
											End Site
											{
												OFFSET	-0.004284	-0.000551	 0.038166
											}
										}
									}
								}
							}
						}
					}
				}
				JOINT Neck
				{
					OFFSET	 0.000000	 0.000000	 0.176489
					CHANNELS 3 Zrotation Xrotation Yrotation
					JOINT Head
					{
						OFFSET	 0.000000	-0.001747	 0.077940
						CHANNELS 3 Zrotation Xrotation Yrotation
						End Site
						{
							OFFSET	 0.000000	-0.001747	 0.077940
						}
					}
				}
				JOINT RightShoulder
				{
					OFFSET	-0.080363	 0.000306	 0.159706
					CHANNELS 3 Zrotation Xrotation Yrotation
					JOINT RightArm
					{
						OFFSET	 0.000000	 0.000000	 0.164196
						CHANNELS 3 Zrotation Xrotation Yrotation
						JOINT RightForeArm
						{
							OFFSET	 0.000000	 0.000000	 0.365611
							CHANNELS 3 Zrotation Xrotation Yrotation
							JOINT RightHand
							{
								OFFSET	 0.000000	 0.000000	 0.360648
								CHANNELS 3 Zrotation Xrotation Yrotation
								JOINT RightHandIndex1
								{
									OFFSET	 0.000000	 0.000000	 0.069977
									CHANNELS 3 Zrotation Xrotation Yrotation
									JOINT RightHandIndex2
									{
										OFFSET	 0.000000	 0.000000	 0.052305
										CHANNELS 3 Zrotation Xrotation Yrotation
										JOINT RightHandIndex3
										{
											OFFSET	 0.009002	-0.000782	 0.042196
											CHANNELS 3 Zrotation Xrotation Yrotation
											End Site
											{
												OFFSET	 0.009002	-0.000782	 0.042196
											}
										}
									}
								}
							}
						}
					}
				}
			}
		}
	}
}
MOTION
Frames:    6
Frame Time: 0.03333334
-27.702420	-50.060920	 0.597517	-55.713720	 0.416765	 0.139886	 4.120881	-1.741005	 179.845800	 3.148374	-11.594570	 1.749879	 4.354856	 71.406410	 1.230548	-2.385833	 28.452760	 0.000004	-4.121233	-2.153045	-179.879800	-3.140193	-11.964010	-1.790653	-4.386740	 71.428390	-1.219508	 2.384659	 28.388700	-0.000001	-0.928581	 3.297324	 0.095435	 2.208161	-0.810247	 0.161572	 2.650120	-0.971515	 0.197631	-96.855680	 86.735770	-170.910800	 12.090980	 1.915943	-6.709803	-4.245054	-0.922349	-0.249373	-16.225070	-0.325082	-4.324123	-2.482367	 5.116409	 7.306710	-5.213516	-0.193813	 3.566525	-1.378229	 35.397820	-2.634230	-0.000002	-3.783157	-0.089647	 0.653853	 1.544715	-0.008815	 104.097500	 88.275240	 160.879200	-12.297030	 2.928372	 8.184141	 4.452215	-0.478757	 0.391490	 15.895820	-1.489535	 8.621798	 3.315085	 2.709412	-9.595269	 5.070815	-0.697434	-9.399699	-2.350882	 35.473990	 5.254307
-27.713390	-50.070340	 0.597309	-55.351850	 0.416765	 0.139886	 4.120881	-1.741005	 179.845800	 3.148374	-11.594570	 1.749879	 4.354856	 71.406410	 1.230548	-2.385833	 28.452760	 0.000004	-4.121233	-2.153045	-179.879800	-3.140193	-11.964010	-1.790653	-4.386740	 71.428390	-1.219508	 2.384659	 28.388700	-0.000001	-0.984230	 3.282887	 0.095904	 2.323636	-0.834170	 0.170506	 2.788703	-1.000135	 0.208663	-96.855680	 86.735770	-170.910800	 12.090980	 1.915943	-6.709803	-4.244903	-0.922355	-0.249348	-16.225170	-0.325120	-4.324132	-2.482367	 5.116409	 7.306710	-5.213516	-0.193813	 3.566525	-1.378229	 35.397820	-2.634230	-0.000002	-3.783157	-0.089647	 0.688016	 1.535136	-0.009218	 104.097500	 88.275240	 160.879200	-12.297030	 2.928372	 8.184141	 4.452303	-0.478772	 0.391447	 15.895900	-1.489521	 8.621734	 3.315085	 2.709412	-9.595269	 5.070815	-0.697434	-9.399699	-2.350882	 35.473990	 5.254307
-27.725270	-50.079940	 0.597385	-55.282340	 0.416765	 0.139886	 4.120881	-1.741005	 179.845800	 3.148374	-11.594570	 1.749879	 4.354856	 71.406410	 1.230548	-2.385833	 28.452760	 0.000004	-4.121233	-2.153045	-179.879800	-3.140193	-11.964010	-1.790653	-4.386740	 71.428390	-1.219508	 2.384659	 28.388700	-0.000001	-1.058177	 3.264156	 0.096505	 2.460936	-0.865199	 0.181247	 2.953512	-1.037260	 0.221952	-96.855680	 86.735770	-170.910800	 12.090980	 1.915943	-6.709803	-4.244956	-0.922282	-0.249396	-16.225250	-0.325062	-4.323982	-2.482367	 5.116409	 7.306710	-5.213516	-0.193813	 3.566525	-1.378229	 35.397820	-2.634230	-0.000002	-3.783157	-0.089647	 0.728663	 1.522901	-0.009684	 104.097500	 88.275240	 160.879200	-12.297030	 2.928372	 8.184141	 4.452353	-0.478827	 0.391370	 15.895930	-1.489540	 8.621686	 3.315085	 2.709412	-9.595269	 5.070815	-0.697434	-9.399699	-2.350882	 35.473990	 5.254307
-27.732640	-50.085350	 0.598810	-55.556260	 0.416765	 0.139886	 4.120881	-1.741005	 179.845800	 3.148374	-11.594570	 1.749879	 4.354856	 71.406410	 1.230548	-2.385833	 28.452760	 0.000004	-4.121233	-2.153045	-179.879800	-3.140193	-11.964010	-1.790653	-4.386740	 71.428390	-1.219508	 2.384659	 28.388700	-0.000001	-1.112912	 3.250470	 0.096940	 2.553549	-0.887867	 0.188573	 3.064682	-1.064384	 0.231032	-96.855680	 86.735770	-170.910800	 12.090980	 1.915943	-6.709803	-4.244948	-0.922276	-0.249374	-16.225340	-0.325135	-4.323961	-2.482367	 5.116409	 7.306710	-5.213516	-0.193813	 3.566525	-1.378229	 35.397820	-2.634230	-0.000002	-3.783157	-0.089647	 0.756054	 1.513933	-0.009990	 104.097500	 88.275240	 160.879200	-12.297030	 2.928372	 8.184141	 4.452414	-0.478774	 0.391284	 15.896010	-1.489548	 8.621660	 3.315085	 2.709412	-9.595269	 5.070815	-0.697434	-9.399699	-2.350882	 35.473990	 5.254307
-27.740380	-50.090560	 0.600775	-55.942130	 0.416765	 0.139886	 4.120881	-1.741005	 179.845800	 3.148374	-11.594570	 1.749879	 4.354856	 71.406410	 1.230548	-2.385833	 28.452760	 0.000004	-4.121233	-2.153045	-179.879800	-3.140193	-11.964010	-1.790653	-4.386740	 71.428390	-1.219508	 2.384659	 28.388700	-0.000001	-1.180482	 3.233626	 0.097470	 2.659688	-0.915768	 0.197058	 3.192092	-1.097768	 0.241566	-96.855680	 86.735770	-170.910800	 12.090980	 1.915943	-6.709803	-4.244962	-0.922253	-0.249361	-16.225410	-0.325082	-4.323922	-2.482367	 5.116409	 7.306710	-5.213516	-0.193813	 3.566525	-1.378229	 35.397820	-2.634230	-0.000002	-3.783157	-0.089647	 0.787398	 1.503029	-0.010329	 104.097500	 88.275240	 160.879200	-12.297030	 2.928372	 8.184141	 4.452487	-0.478798	 0.391271	 15.896190	-1.489576	 8.621672	 3.315085	 2.709412	-9.595269	 5.070815	-0.697434	-9.399699	-2.350882	 35.473990	 5.254307
-27.746630	-50.094250	 0.602350	-56.143260	 0.416765	 0.139886	 4.120881	-1.741005	 179.845800	 3.148374	-11.594570	 1.749879	 4.354856	 71.406410	 1.230548	-2.385833	 28.452760	 0.000004	-4.121233	-2.153045	-179.879800	-3.140193	-11.964010	-1.790653	-4.386740	 71.428390	-1.219508	 2.384659	 28.388700	-0.000001	-1.244470	 3.217602	 0.097971	 2.753615	-0.942306	 0.204654	 3.304817	-1.129525	 0.251013	-96.855680	 86.735770	-170.910800	 12.090980	 1.915943	-6.709803	-4.245077	-0.922307	-0.249357	-16.225280	-0.325057	-4.323847	-2.482367	 5.116409	 7.306710	-5.213516	-0.193813	 3.566525	-1.378229	 35.397820	-2.634230	-0.000002	-3.783157	-0.089647	 0.815180	 1.492745	-0.010620	 104.097500	 88.275240	 160.879200	-12.297030	 2.928372	 8.184141	 4.452544	-0.478864	 0.391197	 15.896420	-1.489626	 8.621695	 3.315085	 2.709412	-9.595269	 5.070815	-0.697434	-9.399699	-2.350882	 35.473990	 5.254307
